<svg width="40" height="40" viewBox="0 0 40 40" fill="none" xmlns="http://www.w3.org/2000/svg">
<g clip-path="url(#clip0_470_603)">
<path d="M27.656 39.2185H3.90622C2.18038 39.2185 0.78125 37.8194 0.78125 36.0936V7.03134C0.78125 5.3055 2.18038 3.90637 3.90622 3.90637H27.656C29.3818 3.90637 30.781 5.3055 30.781 7.03134V36.0936C30.781 37.8195 29.3818 39.2185 27.656 39.2185Z" fill="#FFCD69"/>
<path d="M18.1298 2.65635C17.8868 1.583 16.9279 0.781372 15.7811 0.781372C14.6343 0.781372 13.6753 1.583 13.4323 2.65635H11.2499C10.8615 2.65635 10.5468 2.97112 10.5468 3.35947V7.34381H21.0154V3.35947C21.0154 2.97112 20.7006 2.65635 20.3123 2.65635H18.1298Z" fill="#33D6F5"/>
<path d="M4.21875 7.34375H27.3435V35.781H4.21875V7.34375Z" fill="white"/>
<path d="M19.8435 13.125H17.4998V10.7812H14.0624V13.125H11.7186V16.5624H14.0624V18.9062H17.4998V16.5624H19.8435V13.125Z" fill="#FF7D97"/>
<path d="M34.8946 31.3224C34.7376 30.6713 34.3936 30.0562 33.8616 29.5628C32.5154 28.3143 30.4092 28.3143 29.0631 29.5628C28.5311 30.0562 28.187 30.6713 28.0301 31.3224C27.9055 31.8393 27.5463 32.2628 27.065 32.4886C25.8413 33.0627 25.0008 34.3175 25.0325 35.7658C25.0734 37.6353 26.5897 39.163 28.459 39.217C29.2223 39.239 29.9327 39.0186 30.5195 38.6272C31.089 38.2474 31.8359 38.2474 32.4054 38.6272C32.9921 39.0186 33.7026 39.239 34.4659 39.217C36.3351 39.163 37.8515 37.6353 37.8924 35.7658C37.9242 34.3175 37.0836 33.0626 35.86 32.4885C35.3784 32.2628 35.0192 31.8393 34.8946 31.3224Z" fill="#FFC8B8"/>
<path d="M28.8383 29.2571C30.2505 29.2571 31.3953 27.88 31.3953 26.1812C31.3953 24.4825 30.2505 23.1053 28.8383 23.1053C27.4261 23.1053 26.2812 24.4825 26.2812 26.1812C26.2812 27.88 27.4261 29.2571 28.8383 29.2571Z" fill="#FFC8B8"/>
<path d="M38.9187 31.1125C39.5112 29.8509 39.1517 28.4338 38.1158 27.9473C37.0799 27.4608 35.7598 28.0892 35.1674 29.3508C34.5749 30.6124 34.9344 32.0295 35.9703 32.516C37.0062 33.0025 38.3263 32.3741 38.9187 31.1125Z" fill="#FFC8B8"/>
<path d="M34.0863 29.2571C35.4985 29.2571 36.6434 27.88 36.6434 26.1812C36.6434 24.4825 35.4985 23.1053 34.0863 23.1053C32.6741 23.1053 31.5293 24.4825 31.5293 26.1812C31.5293 27.88 32.6741 29.2571 34.0863 29.2571Z" fill="#FFC8B8"/>
<path d="M26.9294 32.5332C27.9653 32.0467 28.3248 30.6296 27.7323 29.368C27.1399 28.1064 25.8198 27.478 24.7839 27.9645C23.748 28.451 23.3885 29.8681 23.981 31.1297C24.5734 32.3913 25.8935 33.0197 26.9294 32.5332Z" fill="#FFC8B8"/>
<path d="M17.4998 19.6874C17.9313 19.6874 18.2811 19.3376 18.2811 18.9062V17.3437H19.8435C20.275 17.3437 20.6248 16.9939 20.6248 16.5624V13.125C20.6248 12.6935 20.275 12.3437 19.8435 12.3437H18.2811V10.7812C18.2811 10.3498 17.9313 10 17.4998 10H14.0623C13.6309 10 13.2811 10.3498 13.2811 10.7812V12.3437H11.7186C11.2871 12.3437 10.9374 12.6935 10.9374 13.125V16.5624C10.9374 16.9939 11.2871 17.3437 11.7186 17.3437H13.2811V18.9062C13.2811 19.3376 13.6309 19.6874 14.0623 19.6874H17.4998ZM12.4999 15.7812V13.9062H14.0623C14.4938 13.9062 14.8436 13.5564 14.8436 13.125V11.5625H16.7186V13.125C16.7186 13.5564 17.0683 13.9062 17.4998 13.9062H19.0623V15.7812H17.4998C17.0683 15.7812 16.7186 16.131 16.7186 16.5624V18.1249H14.8436V16.5624C14.8436 16.131 14.4938 15.7812 14.0623 15.7812H12.4999Z" fill="black"/>
<path d="M11.0376 22.1037L9.94943 23.1919L9.63271 22.8752C9.32763 22.5701 8.83294 22.5701 8.52779 22.8752C8.22263 23.1803 8.22271 23.675 8.52779 23.9801L9.39693 24.8493C9.54951 25.0018 9.74943 25.0781 9.94935 25.0781C10.1493 25.0781 10.3493 25.0018 10.5018 24.8493L12.1424 23.2086C12.4475 22.9036 12.4475 22.4089 12.1424 22.1037C11.8373 21.7986 11.3427 21.7986 11.0376 22.1037Z" fill="black"/>
<path d="M22.4818 23.5155H14.4611C14.0296 23.5155 13.6798 23.8653 13.6798 24.2967C13.6798 24.7282 14.0296 25.078 14.4611 25.078H22.4818C22.9133 25.078 23.2631 24.7282 23.2631 24.2967C23.2631 23.8653 22.9133 23.5155 22.4818 23.5155Z" fill="black"/>
<path d="M11.0376 27.4943L9.94943 28.5825L9.63271 28.2658C9.32763 27.9607 8.83294 27.9607 8.52779 28.2658C8.22263 28.5709 8.22271 29.0656 8.52779 29.3707L9.39693 30.2399C9.54951 30.3925 9.74943 30.4687 9.94935 30.4687C10.1493 30.4687 10.3493 30.3925 10.5018 30.2399L12.1424 28.5993C12.4475 28.2942 12.4475 27.7995 12.1424 27.4943C11.8373 27.1892 11.3427 27.1893 11.0376 27.4943Z" fill="black"/>
<path d="M18.4716 28.9061H14.4612C14.0297 28.9061 13.6799 29.2559 13.6799 29.6874C13.6799 30.1189 14.0297 30.4686 14.4612 30.4686H18.4716C18.9031 30.4686 19.2528 30.1189 19.2528 29.6874C19.2528 29.2559 18.903 28.9061 18.4716 28.9061Z" fill="black"/>
<path d="M39.8995 29.057C39.6895 28.2282 39.1792 27.5862 38.4627 27.2494C38.106 27.0818 37.7264 27.0062 37.3456 27.013C37.3968 26.7449 37.4246 26.4668 37.4246 26.1812C37.4246 24.0544 35.9272 22.3241 34.0865 22.3241C33.0789 22.3241 32.1748 22.8433 31.5622 23.6615V7.0313C31.5622 4.87742 29.8099 3.12509 27.656 3.12509H21.7763C21.6633 2.41783 21.0508 1.8751 20.3123 1.8751H18.6892C18.1837 0.745818 17.0632 0.00012207 15.7811 0.00012207C14.499 0.00012207 13.3785 0.745818 12.873 1.8751H11.2499C10.5114 1.8751 9.89881 2.41783 9.78592 3.12509H3.90621C1.75233 3.12509 0 4.87742 0 7.0313V36.0935C0 38.2474 1.75233 39.9997 3.90621 39.9997H28.6014C28.6069 39.9997 28.5959 39.999 28.6014 39.999C29.4399 39.9903 30.255 39.7427 30.9529 39.2772C31.2575 39.074 31.667 39.0738 31.9717 39.2772C32.7176 39.7747 33.5872 40.0243 34.4883 39.9979C36.7848 39.9316 38.6231 38.0802 38.6733 35.7829C38.6938 34.8467 38.4092 33.9517 37.8933 33.2144C37.8713 33.2249 37.9153 33.2046 37.8933 33.2144C38.6132 32.872 39.276 32.2281 39.6395 31.4547C40.003 30.6813 40.0954 29.8298 39.8995 29.057ZM30.6139 26.1812C30.6139 27.4464 29.8174 28.4758 28.8382 28.4758C27.8591 28.4758 27.0625 27.4464 27.0625 26.1812C27.0625 24.916 27.8591 23.8866 28.8382 23.8866C29.8174 23.8866 30.6139 24.916 30.6139 26.1812ZM27.0365 29.6916C27.2436 30.1321 27.3017 30.624 27.1961 31.0409C27.1031 31.408 26.8947 31.684 26.6092 31.8182C26.3237 31.9522 25.9783 31.9366 25.6362 31.774C25.2477 31.5893 24.9062 31.2306 24.6992 30.7901C24.4922 30.3496 24.4341 29.8578 24.5397 29.4408C24.6327 29.0737 24.8411 28.7977 25.1266 28.6636C25.2559 28.6028 25.3951 28.5741 25.5385 28.5741C26.0973 28.574 26.7168 29.0112 27.0365 29.6916ZM34.0865 23.8866C35.0656 23.8866 35.8622 24.916 35.8622 26.1812C35.8622 27.4464 35.0656 28.4758 34.0865 28.4758C33.1073 28.4758 32.3107 27.4464 32.3107 26.1812C32.3107 24.916 33.1073 23.8866 34.0865 23.8866ZM29.9997 7.0313V22.5654C29.6378 22.4097 29.2465 22.3241 28.8382 22.3241C28.5933 22.3241 28.3548 22.3556 28.1247 22.4137V17.4819C28.1247 17.0504 27.775 16.7007 27.3435 16.7007C26.912 16.7007 26.5622 17.0504 26.5622 17.4819V23.3632C25.9093 24.0676 25.5 25.07 25.5 26.1811C25.5 26.4667 25.5278 26.7448 25.579 27.0129C25.1983 27.0062 24.8187 27.0817 24.462 27.2494C23.7454 27.5862 23.2351 28.2281 23.0251 29.057C22.8293 29.8298 22.9217 30.6813 23.2852 31.4547C23.6486 32.228 24.3114 32.8719 25.0313 33.2143C25.0093 33.2045 25.0533 33.2248 25.0313 33.2143C24.6616 33.7428 24.4105 34.3521 24.3057 34.9998H4.99995V8.12504H26.5622V10.4508C26.5622 10.8823 26.912 11.232 27.3435 11.232C27.775 11.232 28.1247 10.8823 28.1247 10.4508V7.3438C28.1247 6.91232 27.775 6.56256 27.3435 6.56256H21.7967V4.68758H27.656C28.9483 4.68758 29.9997 5.73897 29.9997 7.0313ZM13.4324 3.43759C13.7974 3.43759 14.1138 3.18486 14.1943 2.82884C14.3603 2.09518 15.0277 1.56261 15.7811 1.56261C16.5345 1.56261 17.2018 2.0951 17.3679 2.82884C17.4485 3.18486 17.7648 3.43759 18.1298 3.43759H20.2342V6.56256H11.328V3.43759H13.4324ZM1.56248 36.0935V7.0313C1.56248 5.73897 2.61388 4.68758 3.90621 4.68758H9.76553V6.56256H4.21871C3.78723 6.56256 3.43747 6.91232 3.43747 7.3438V35.781C3.43747 36.2125 3.78723 36.5623 4.21871 36.5623H24.34C24.4844 37.2649 24.7986 37.9051 25.239 38.4372H3.90621C2.61388 38.4372 1.56248 37.3859 1.56248 36.0935ZM34.4432 38.4361C33.868 38.4523 33.3137 38.2941 32.8388 37.9773C32.0027 37.4196 30.9221 37.4195 30.0858 37.9773C29.611 38.294 29.0559 38.4522 28.4814 38.4361C27.0174 38.3937 25.8455 37.2134 25.8134 35.7487C25.7896 34.6603 26.4111 33.6582 27.3966 33.1959C28.1027 32.8646 28.6104 32.2486 28.7896 31.5054C28.9162 30.9801 29.1945 30.5064 29.5942 30.1355C30.1181 29.6498 30.7901 29.4069 31.4623 29.4069C32.1345 29.4069 32.8067 29.6498 33.3304 30.1355C33.7302 30.5064 34.0085 30.9801 34.1351 31.5054C34.3141 32.2484 34.8218 32.8645 35.5279 33.1957C36.5135 33.6581 37.135 34.6602 37.1112 35.7486C37.0792 37.2134 35.9072 38.3938 34.4432 38.4361ZM38.2254 30.7901C38.0184 31.2306 37.6769 31.5893 37.2884 31.774C36.9464 31.9368 36.6008 31.9523 36.3154 31.8182C36.03 31.684 35.8216 31.408 35.7286 31.0409C35.6229 30.6239 35.6811 30.1321 35.8881 29.6916C36.2899 28.8366 37.1644 28.3657 37.7981 28.6635C38.0835 28.7977 38.2919 29.0737 38.3849 29.4408C38.4906 29.8578 38.4324 30.3496 38.2254 30.7901Z" fill="black"/>
<path d="M27.3435 13.1852C27.138 13.1852 26.9365 13.2688 26.7912 13.4141C26.6458 13.5594 26.5623 13.761 26.5623 13.9664C26.5623 14.1719 26.6458 14.3735 26.7912 14.5188C26.9365 14.6641 27.138 14.7477 27.3435 14.7477C27.549 14.7477 27.7505 14.6641 27.8959 14.5188C28.0412 14.3735 28.1248 14.1719 28.1248 13.9664C28.1248 13.761 28.0412 13.5594 27.8959 13.4141C27.7505 13.2688 27.549 13.1852 27.3435 13.1852Z" fill="black"/>
</g>
<defs>
<clipPath id="clip0_470_603">
<rect width="40" height="40" fill="white"/>
</clipPath>
</defs>
</svg>
