<svg width="40" height="40" viewBox="0 0 40 40" fill="none" xmlns="http://www.w3.org/2000/svg">
<g clip-path="url(#clip0_470_635)">
<path d="M31.6935 4.59387L27.0273 9.26001C27.5739 9.80658 30.2515 12.4842 30.7981 13.0308L35.4642 8.36463C34.9177 7.81806 32.2401 5.14044 31.6935 4.59387Z" fill="#D1D0CF"/>
<path d="M29.0925 9.76264C28.8148 9.48493 28.8148 9.0351 29.0925 8.75739L32.4744 5.37512C32.1207 5.02112 31.8351 4.73578 31.6935 4.59387L27.0273 9.26001C27.5739 9.80658 30.2515 12.4842 30.7981 13.0308L31.579 12.2495C30.8234 11.4939 29.7538 10.424 29.0925 9.76264Z" fill="#AFAFAF"/>
<path d="M8.38379 29.8954L7.03033 31.2488C6.78253 31.4966 6.78253 31.898 7.03033 32.1458L7.91229 33.0277C8.1601 33.2755 8.5614 33.2755 8.80921 33.0277L10.1627 31.6743L8.38379 29.8954Z" fill="#F3A334"/>
<path d="M8.57788 32.1458C8.33008 31.898 8.33008 31.4963 8.57788 31.2488L9.15741 30.6693L8.38379 29.8954L7.03033 31.2488C6.78253 31.4963 6.78253 31.898 7.03033 32.1458L7.91229 33.0277C8.1601 33.2752 8.56171 33.2752 8.80921 33.0277L9.13452 32.7024L8.57788 32.1458Z" fill="#EE911C"/>
<path d="M16.7594 32.2327C17.1375 31.8546 19.2292 29.763 19.4974 29.4947L31.4756 17.5169L22.5413 8.58252L10.5634 20.5607C10.3183 20.8057 8.20683 22.9172 7.82536 23.2987C6.05381 25.0703 6.03367 27.9874 7.82536 29.7791C8.08537 30.0391 10.019 31.9727 10.279 32.2327C12.0563 34.0101 14.9744 34.0177 16.7594 32.2327Z" fill="#E4E3E1"/>
<path d="M11.8415 32.2327C11.5815 31.9727 9.64787 30.0391 9.38786 29.7791C7.59617 27.9874 7.61631 25.0703 9.38786 23.2987C9.76933 22.9172 11.8808 20.8057 12.1259 20.5607L23.3225 9.36377L22.5413 8.58252L10.5634 20.5607C10.3183 20.8057 8.20683 22.9172 7.82536 23.2987C6.05381 25.0703 6.03367 27.9874 7.82536 29.7791C8.08537 30.0391 10.019 31.9727 10.279 32.2327C11.3663 33.3201 12.8806 33.744 14.3015 33.5011C13.3982 33.3469 12.5333 32.9246 11.8415 32.2327Z" fill="#D1D0CF"/>
<path d="M30.2298 3.20683L36.8512 9.82824C37.1958 10.1731 37.7549 10.1731 38.0994 9.82824L39.2261 8.70153C39.571 8.35668 39.571 7.7979 39.2261 7.45336L32.6047 0.83165C32.2602 0.487106 31.7011 0.487106 31.3565 0.83165L30.2298 1.95866C29.885 2.30321 29.885 2.86229 30.2298 3.20683Z" fill="#E4E3E1"/>
<path d="M31.792 3.20676C31.4475 2.86221 31.4475 2.30313 31.792 1.95859L32.7619 0.988739L32.6047 0.831879C32.2602 0.48703 31.7014 0.48703 31.3565 0.831879L30.2298 1.95859C29.885 2.30344 29.885 2.86221 30.2298 3.20676L36.8512 9.82816C37.1958 10.173 37.7549 10.173 38.0994 9.82816L38.2566 9.6713L31.792 3.20676Z" fill="#D1D0CF"/>
<path d="M19.4974 29.495L22.2639 26.7282L30.7508 18.2413C29.8527 18.7189 28.7275 18.4778 28.1071 17.645C28.0219 17.5305 27.8547 17.5305 27.7695 17.645C26.9358 18.7638 25.264 18.7632 24.4306 17.645C24.3458 17.5309 24.1785 17.5309 24.0934 17.6447C23.2596 18.7638 21.5879 18.7632 20.7545 17.6447C20.6693 17.5305 20.5021 17.5305 20.4172 17.6447C19.5835 18.7638 17.9117 18.7632 17.0783 17.6447C16.9932 17.5305 16.8259 17.5305 16.7408 17.645C15.9217 18.7445 14.2856 18.768 13.436 17.6877C7.29223 23.8318 7.6914 23.4125 7.43902 23.74C7.36455 23.8568 6.30071 25.0953 6.5183 27.0539C6.63457 28.0939 7.09691 29.0509 7.82506 29.7791L10.279 32.2327C12.3935 34.3473 15.4593 33.4778 16.3178 32.6191C16.6373 32.3728 16.4933 32.4991 19.4974 29.495Z" fill="#FFC964"/>
<path d="M11.7877 33.2301C12.6236 33.5603 13.49 33.6042 14.2514 33.4916C13.3664 33.3308 12.5204 32.9118 11.8414 32.2327C11.5814 31.9727 9.64782 30.0391 9.38781 29.7791C7.59612 27.9874 7.61626 25.0703 9.38781 23.2987C9.76928 22.9172 11.8808 20.8057 12.1258 20.5607L14.3365 18.35C13.9963 18.2218 13.6829 18.0018 13.436 17.6877C7.20855 23.9155 7.11181 23.7659 6.67663 25.2363C6.16942 26.9639 6.75384 28.7748 7.82531 29.7791C10.4016 32.3554 10.6805 32.7824 11.7877 33.2301Z" fill="#F3A334"/>
<path d="M20.4172 17.6447C20.5023 17.5306 20.6696 17.5306 20.7544 17.6447C21.5881 18.7638 23.2602 18.7632 24.0933 17.6447C24.1785 17.5306 24.3457 17.5306 24.4309 17.645C24.6838 17.9847 25.0385 18.2441 25.4495 18.3793L28.8937 14.9351C28.3472 14.3885 25.6696 11.7109 25.123 11.1643L17.959 18.3283C18.8303 18.6857 19.8425 18.4162 20.4172 17.6447Z" fill="#D1D0CF"/>
<path d="M19.5215 18.3283L25.9042 11.9456C25.5502 11.5916 25.2646 11.3062 25.123 11.1643L17.959 18.3283C18.4726 18.5392 19.0347 18.5303 19.5279 18.3308C19.5258 18.3298 19.5236 18.3292 19.5215 18.3283Z" fill="#AFAFAF"/>
<path d="M34.8047 17.0219L23.0361 5.25336C22.6913 4.90851 22.1249 4.91614 21.7706 5.27045L21.0968 5.94427C20.7428 6.29828 20.7351 6.86499 21.0797 7.20953L32.8485 18.9783C33.193 19.3229 33.7594 19.3153 34.1137 18.9613L34.7876 18.2874C35.1419 17.9331 35.1495 17.3667 34.8047 17.0219Z" fill="#72BDF6"/>
<path d="M22.6422 7.20953C22.2973 6.86499 22.3049 6.29858 22.6593 5.94427L23.193 5.41022L23.0361 5.25336C22.6913 4.90851 22.1249 4.91614 21.7706 5.27045L21.0968 5.94427C20.7428 6.29828 20.7351 6.86499 21.0797 7.20953L32.8485 18.9783C33.193 19.3229 33.7597 19.3153 34.1137 18.9613L34.2538 18.8215L22.6422 7.20953Z" fill="#4B98D4"/>
<path d="M18.9328 31.5805C18.9328 32.4146 18.2565 33.0905 17.4225 33.0905C16.5884 33.0905 15.9125 32.4146 15.9125 31.5805C15.9125 30.7465 16.5884 30.0702 17.4225 30.0702C18.2565 30.0702 18.9328 30.7465 18.9328 31.5805Z" fill="#A0634A"/>
<path d="M30.7508 31.5805C30.7508 32.4146 30.0748 33.0905 29.2408 33.0905C28.4067 33.0905 27.7305 32.4146 27.7305 31.5805C27.7305 30.7465 28.4067 30.0702 29.2408 30.0702C30.0748 30.0702 30.7508 30.7465 30.7508 31.5805Z" fill="#A0634A"/>
<path d="M26.9065 33.8336C25.9839 32.2357 24.2914 31.138 22.771 31.4697C19.3827 32.1417 17.6587 37.5042 20.3397 39.0521C21.0569 39.4662 21.9278 39.4622 22.7686 39.1214C23.129 38.9752 23.5346 38.9752 23.895 39.1214C24.7358 39.4622 25.6067 39.4662 26.3236 39.0521C27.8129 38.1921 28.0741 35.8557 26.9065 33.8336Z" fill="#A0634A"/>
<path d="M27.7476 28.1589C27.7476 29.1705 26.9276 29.9902 25.9162 29.9902C24.9045 29.9902 24.0848 29.1705 24.0848 28.1589C24.0848 27.1475 24.9045 26.3275 25.9162 26.3275C26.9276 26.3275 27.7476 27.1475 27.7476 28.1589Z" fill="#A0634A"/>
<path d="M22.5785 28.1589C22.5785 29.1705 21.7585 29.9902 20.7471 29.9902C19.7358 29.9902 18.9158 29.1705 18.9158 28.1589C18.9158 27.1475 19.7358 26.3275 20.7471 26.3275C21.7585 26.3275 22.5785 27.1475 22.5785 28.1589Z" fill="#A0634A"/>
<path d="M18.2773 30.336C18.0344 30.1688 17.7399 30.0702 17.4225 30.0702C16.5884 30.0702 15.9125 30.7465 15.9125 31.5805C15.9125 32.4146 16.5884 33.0905 17.4225 33.0905C17.7399 33.0905 18.0341 32.9923 18.2773 32.8247C17.4036 32.2235 17.4045 30.9369 18.2773 30.336Z" fill="#915039"/>
<path d="M30.0956 30.336C29.8524 30.1688 29.5582 30.0702 29.2408 30.0702C28.4067 30.0702 27.7305 30.7465 27.7305 31.5805C27.7305 32.7982 29.0998 33.5104 30.0956 32.825C29.2216 32.2235 29.2225 30.9369 30.0956 30.336Z" fill="#915039"/>
<path d="M22.0492 39.0522C19.4885 37.5736 20.9286 32.497 24.1928 31.5421C22.4209 31.0136 20.6738 32.2452 19.7568 33.8337C18.5891 35.8558 18.8501 38.1922 20.3396 39.0522C20.9659 39.4138 21.7099 39.4566 22.4484 39.2344C22.3111 39.1865 22.1777 39.1264 22.0492 39.0522Z" fill="#915039"/>
<path d="M25.7944 28.1589C25.7944 27.4564 26.1902 26.8472 26.771 26.5399C26.5156 26.405 26.225 26.3275 25.9162 26.3275C24.9048 26.3275 24.0848 27.1475 24.0848 28.1589C24.0848 29.1705 24.9045 29.9902 25.9162 29.9902C26.225 29.9902 26.5156 29.913 26.771 29.7781C26.1906 29.4708 25.7944 28.8614 25.7944 28.1589Z" fill="#915039"/>
<path d="M21.6019 26.5399C21.3468 26.405 21.0563 26.3275 20.7471 26.3275C19.7358 26.3275 18.9158 27.1475 18.9158 28.1589C18.9158 29.1705 19.7358 29.9902 20.7471 29.9902C21.056 29.9902 21.3468 29.913 21.6019 29.7781C20.3007 29.0894 20.3025 27.2275 21.6019 26.5399Z" fill="#915039"/>
<path d="M29.2667 33.7012C30.4242 33.7012 31.3657 32.7598 31.3657 31.6022C31.3657 30.445 30.4242 29.5035 29.2667 29.5035C28.1094 29.5035 27.168 30.445 27.168 31.6022C27.168 32.7598 28.1094 33.7012 29.2667 33.7012ZM29.2667 30.6751C29.7781 30.6751 30.1938 31.0911 30.1938 31.6022C30.1938 32.1137 29.7781 32.5294 29.2667 32.5294C28.7555 32.5294 28.3395 32.1137 28.3395 31.6022C28.3395 31.0911 28.7555 30.6751 29.2667 30.6751Z" fill="black"/>
<path d="M25.936 25.7538C24.6012 25.7538 23.5154 26.8396 23.5154 28.1744C23.5154 29.5093 24.6012 30.5951 25.936 30.5951C27.2709 30.5951 28.3567 29.5093 28.3567 28.1744C28.3567 26.8396 27.2709 25.7538 25.936 25.7538ZM25.936 29.4232C25.2473 29.4232 24.687 28.8629 24.687 28.1744C24.687 27.4857 25.2473 26.9257 25.936 26.9257C26.6245 26.9257 27.1848 27.4857 27.1848 28.1744C27.1848 28.8629 26.6245 29.4232 25.936 29.4232Z" fill="black"/>
<path d="M37.4281 4.83735C37.1992 4.60846 36.8284 4.60846 36.5995 4.83735C36.3706 5.06623 36.3706 5.43702 36.5995 5.6659C38.9985 8.06489 38.8999 7.91993 38.8999 8.0893C38.8999 8.25288 38.91 8.20222 37.6862 9.42567C37.5706 9.54163 37.3826 9.54194 37.2666 9.42567C30.1365 2.29584 30.5582 2.76947 30.5582 2.59461C30.5582 2.54852 30.5695 2.46033 30.6452 2.38465C31.8702 1.15936 31.8186 1.17096 31.9816 1.17096C32.0277 1.17096 32.1159 1.18225 32.1915 1.25794L34.6662 3.73261C34.8951 3.96118 35.2659 3.96118 35.4948 3.73261C35.7236 3.50373 35.7236 3.13263 35.4948 2.90405L33.0201 0.429383C32.4476 -0.143128 31.5159 -0.143128 30.9431 0.429383L29.8164 1.55609C29.2438 2.12891 29.2438 3.06061 29.8164 3.63312L30.8274 4.64417L27.0283 8.44331L23.4437 4.85871C22.8709 4.2862 21.9391 4.2862 21.3666 4.85871L20.7108 5.51453C20.1383 6.08735 20.138 7.01905 20.7105 7.59156L21.7136 8.59467C21.7036 8.60444 7.43474 22.8736 7.44451 22.8635C6.39135 23.9371 5.90368 25.2002 5.90368 26.5506C5.90368 27.8983 6.41271 29.1629 7.33678 30.1264L6.61687 30.8463C6.1411 31.3224 6.1411 32.0963 6.61687 32.572L6.64342 32.5986L0.24968 38.9926C0.0211029 39.2215 0.0211029 39.5923 0.24968 39.8212C0.478867 40.0501 0.849656 40.0498 1.07823 39.8212L7.47228 33.4272L7.49883 33.454C7.9746 33.9295 8.74883 33.9295 9.2246 33.454L9.94451 32.7338C10.9342 33.6826 12.2245 34.1678 13.5218 34.1678C14.4816 34.1678 15.4438 33.9026 16.2897 33.3655C17.6801 34.2649 19.5252 33.2611 19.5252 31.6022C19.5252 31.2299 19.4276 30.8805 19.2567 30.5768L19.5579 30.2759C21.6804 31.492 24.0812 29.1089 22.8586 26.9751C24.3998 25.434 30.5097 19.3241 31.4765 18.3573L32.4793 19.3604C33.0534 19.9341 33.982 19.9341 34.5563 19.3604L35.2122 18.7042C35.7859 18.1305 35.7862 17.2016 35.2122 16.6275L31.6276 13.0426L35.4267 9.24348L36.4378 10.2545C37.0103 10.827 37.9423 10.827 38.5148 10.2545L39.6415 9.12781C40.214 8.5553 40.214 7.6233 39.6415 7.05079L37.4281 4.83735ZM22.5422 9.42323L24.2954 11.1762L17.8565 17.6154C17.7418 17.5293 17.638 17.4259 17.5492 17.3068C17.23 16.8781 16.5912 16.8784 16.272 17.3068C15.7905 17.9532 14.918 18.0826 14.282 17.6837L22.5422 9.42323ZM25.124 12.0047L28.0662 14.9469L25.3223 17.6907C25.1548 17.5888 25.0117 17.4542 24.9015 17.3065C24.5817 16.8771 23.9429 16.8793 23.6246 17.3065C23.0231 18.114 21.8229 18.1088 21.2253 17.3065C20.9037 16.8753 20.264 16.8833 19.9485 17.3065C19.8823 17.4225 19.6284 17.663 19.3418 17.7872L25.124 12.0047ZM8.39605 32.6251C8.37743 32.6441 8.3463 32.6441 8.32769 32.6251C7.65478 31.9522 8.12047 32.4179 7.44573 31.7432C7.42681 31.7246 7.42681 31.6938 7.44573 31.6751L8.16381 30.9571L9.11413 31.9074L8.39605 32.6251ZM16.4994 31.6022C16.4994 30.8179 17.4116 30.398 18.0091 30.882C18.2166 31.0507 18.3536 31.3108 18.3536 31.6022C18.3536 32.8098 16.4994 32.8476 16.4994 31.6022ZM19.7388 28.8947C18.9969 27.8476 20.1395 26.4966 21.2934 27.0481C21.7295 27.2574 22.0063 27.6947 22.0063 28.1745C22.0063 29.3741 20.4536 29.8953 19.7388 28.8947ZM22.0493 26.1273C19.9204 24.7708 17.316 27.2797 18.7101 29.4663L18.422 29.7544C16.688 28.8153 14.6796 30.6183 15.514 32.4665C13.971 33.3545 11.9819 33.118 10.6943 31.8305L8.24071 29.3765C7.48937 28.6255 7.07555 27.6218 7.07555 26.5506C7.07555 25.6632 7.36059 24.8227 7.88518 24.133L8.31731 24.5648C8.5462 24.7937 8.91729 24.7937 9.14587 24.5648C9.37475 24.336 9.37475 23.9652 9.14587 23.7363L8.68749 23.2779L9.96221 22.0032L10.4209 22.4616C10.6498 22.6904 11.0206 22.6901 11.2494 22.4616C11.478 22.2327 11.478 21.8619 11.2494 21.633L10.7911 21.1746L12.0658 19.8999L12.5242 20.3583C12.753 20.5869 13.1238 20.5869 13.3527 20.3583C13.5816 20.1294 13.5816 19.7583 13.3527 19.5297L12.8943 19.0711L13.4409 18.5248C14.4523 19.3118 15.9406 19.2752 16.9105 18.3478C17.9337 19.3274 19.5652 19.3259 20.5869 18.3481C21.6093 19.3265 23.2392 19.3274 24.2631 18.3478C25.2851 19.3262 26.915 19.3283 27.9392 18.3481C28.288 18.682 28.711 18.9075 29.1621 19.0146L22.0493 26.1273ZM30.4078 17.7686C29.7663 18.0698 29.0073 17.8833 28.5779 17.3068C28.3704 17.0282 27.9798 16.8912 27.613 17.0572L28.8947 15.7755L30.648 17.5287L30.4078 17.7686ZM34.3836 17.4558C34.4993 17.5717 34.4993 17.76 34.3836 17.8757L33.7278 18.5315C33.6121 18.6472 33.4235 18.6472 33.3079 18.5315C31.9013 17.125 22.9557 8.17933 21.5394 6.76301C21.4237 6.64734 21.4237 6.45905 21.5394 6.34308L22.1952 5.68726C22.3109 5.5716 22.4995 5.5716 22.6151 5.68726C23.0317 6.10413 33.8093 16.8817 34.3836 17.4558ZM30.799 12.2141L27.8568 9.27186L31.656 5.47272L34.5982 8.41492L30.799 12.2141Z" fill="black"/>
<path d="M22.6657 30.9177C19.3079 31.5888 17.1326 36.4691 19.321 38.9838C20.2109 40.0064 21.5872 40.2741 23.0023 39.7003C23.2211 39.6115 23.472 39.6118 23.6908 39.7003C25.715 40.521 27.4246 39.5752 28.0234 37.8409C28.129 37.5351 27.9666 37.2012 27.6608 37.096C27.3547 36.9901 27.0212 37.1527 26.9159 37.4585C26.7191 38.0283 26.3535 38.4592 25.8859 38.6716C25.3882 38.8977 24.7815 38.8782 24.1309 38.6145C23.6252 38.4094 23.0679 38.4094 22.5622 38.6145C21.6043 39.003 20.7672 38.8608 20.2048 38.2147C18.6453 36.4227 20.3345 32.612 22.9098 32.0639C24.0955 31.8048 25.5725 32.6837 26.4209 34.1528C26.5994 34.4623 26.7447 34.7818 26.8521 35.1019C26.9553 35.4086 27.2873 35.574 27.594 35.4712C27.9007 35.3681 28.0661 35.036 27.9629 34.7293C27.8308 34.335 27.6532 33.9441 27.4356 33.5669C26.3229 31.6394 24.3625 30.5509 22.6657 30.9177Z" fill="black"/>
</g>
<defs>
<clipPath id="clip0_470_635">
<rect width="40" height="40" fill="white"/>
</clipPath>
</defs>
</svg>
