<svg width="48" height="48" viewBox="0 0 48 48" fill="none" xmlns="http://www.w3.org/2000/svg">
<g clip-path="url(#clip0_470_572)" filter="url(#filter0_d_470_572)">
<path d="M40.2793 17.927L39.8043 21.8223L39.1816 26.9262L38.5582 32.0332L37.9457 37.0535H10.0544L9.44191 32.0332L8.81926 26.9262L8.1966 21.8223L7.72864 17.9895L9.10441 16.7512L14.7513 11.6692L20.3395 6.63956L23.5965 3.70911L23.9997 3.34583L27.677 6.63956L33.2926 11.6692L38.9668 16.7512L40.2793 17.927Z" fill="#FFC599"/>
<path d="M40.2792 17.9269L39.8042 21.8222L39.1815 26.9261L38.5581 32.0331L37.9456 37.0534H35.9776L38.2175 18.7019L23.5964 3.70898L23.9996 3.3457L27.6769 6.63944L33.2925 11.6691L38.9667 16.7511L40.2792 17.9269Z" fill="#F7AA74"/>
<path d="M27.677 6.63945H20.3395L23.5965 3.70898L23.9996 3.3457L27.677 6.63945Z" fill="#F7AA74"/>
<path d="M38.9667 16.7511H9.10437L14.7512 11.6691H33.2926L38.9667 16.7511Z" fill="#F7AA74"/>
<path d="M39.8042 21.8221L39.1816 26.926H8.81919L8.19653 21.8221H39.8042Z" fill="#F7AA74"/>
<path d="M38.5582 32.0331L37.9457 37.0534H10.0544L9.44189 32.0331H38.5582Z" fill="#F7AA74"/>
<path d="M23.5964 3.70898L26.4542 6.63945H27.6769L23.9996 3.3457L23.5964 3.70898Z" fill="#EA8857"/>
<path d="M35.9777 37.0534H37.9456L38.5581 32.0331H36.5909L35.9777 37.0534Z" fill="#EA8857"/>
<path d="M38.9667 16.7511L33.2925 11.6691H31.3589L36.3151 16.7511H38.9667Z" fill="#EA8857"/>
<path d="M37.8371 21.8221L37.2136 26.9261H39.1816L39.8042 21.8221H37.8371Z" fill="#EA8857"/>
<path d="M29.9559 27.7785V37.0535H18.0442V27.7785C18.0442 24.8902 20.0997 22.4824 22.8278 21.9379C23.2067 21.8621 23.5981 21.8223 23.9997 21.8223C25.6442 21.8223 27.1333 22.4887 28.2114 23.5668C29.2895 24.6441 29.9559 26.1332 29.9559 27.7785Z" fill="#7C5F56"/>
<path d="M29.9559 27.7785V37.0535H27.6121V27.7785C27.6121 26.1332 26.9457 24.6441 25.8676 23.5668C25.0528 22.752 24.0028 22.1723 22.8278 21.9379C23.2067 21.8621 23.5981 21.8223 23.9996 21.8223C25.6442 21.8223 27.1332 22.4887 28.2114 23.5668C29.2895 24.6441 29.9559 26.1332 29.9559 27.7785Z" fill="#6B4338"/>
<path d="M19.2459 19.625C18.585 19.5523 18.0506 19.0172 17.9772 18.3563C17.9475 18.0914 17.9904 17.8383 18.0881 17.6148C18.2045 17.35 18.3975 17.1266 18.6397 16.9734C18.8053 16.868 18.8053 16.6328 18.6397 16.5273C18.1936 16.2445 17.9131 15.7242 17.9772 15.1445C18.0506 14.4836 18.585 13.9492 19.2459 13.8758C20.1154 13.7797 20.8522 14.4586 20.8522 15.3086V15.3117C20.8514 15.4578 20.9654 15.5789 21.1123 15.5789H26.96C27.1061 15.5789 27.2209 15.4586 27.2201 15.3117V15.3094C27.2201 14.4586 27.9561 13.7805 28.8264 13.8766C29.4873 13.9492 30.0217 14.4844 30.0951 15.1453C30.1592 15.725 29.8787 16.2453 29.4326 16.5281C29.267 16.6336 29.267 16.8688 29.4326 16.9742C29.6717 17.1258 29.8631 17.3453 29.9803 17.6055C30.0803 17.8313 30.1248 18.0875 30.0951 18.357C30.0217 19.018 29.4873 19.5523 28.8264 19.6258C27.9568 19.7219 27.2201 19.043 27.2201 18.193V18.1898C27.2209 18.0438 27.1068 17.9227 26.96 17.9227H21.1123C20.9662 17.9227 20.8514 18.043 20.8522 18.1898V18.1922C20.8522 19.043 20.1162 19.7211 19.2459 19.625Z" fill="#E1F9FF"/>
<path d="M19.2459 19.625C18.585 19.5523 18.0506 19.0171 17.9772 18.3562C17.9475 18.0914 17.9904 17.8382 18.0881 17.6148C18.1076 17.6648 18.1303 17.714 18.1561 17.764C18.2647 17.9765 18.4365 18.1531 18.6475 18.2648C19.7482 18.8453 20.8522 17.0203 20.8522 17.0203L27.2201 17.021C27.2201 17.021 27.9576 18.55 28.8279 18.4531C29.3412 18.396 29.7764 18.0609 29.9803 17.6054C30.0803 17.8312 30.1248 18.0875 30.0951 18.357C30.0217 19.0179 29.4873 19.5523 28.8264 19.6257C27.9568 19.7218 27.2201 19.0429 27.2201 18.1929V18.1898C27.2209 18.0437 27.1068 17.9226 26.96 17.9226H21.1123C20.9662 17.9226 20.8514 18.0429 20.8522 18.1898V18.1921C20.8522 19.0429 20.1162 19.721 19.2459 19.625Z" fill="#C2E8EF"/>
<path d="M42.2424 37.0533H5.75757C5.11054 37.0533 4.58594 37.579 4.58594 38.2274C4.58594 38.8758 5.11047 39.4015 5.75757 39.4015H42.2424C42.8894 39.4015 43.414 38.8758 43.414 38.2274C43.414 37.579 42.8894 37.0533 42.2424 37.0533Z" fill="#4A555B"/>
<path d="M20.6223 37.0533L19.8411 32.0332H7.51953L6.73828 37.0533H20.6223Z" fill="#FF6248"/>
<path d="M18.2786 37.0533L17.4973 32.0332H19.8411L20.6223 37.0533H18.2786Z" fill="#FF0000"/>
<path d="M43.1143 18.8949C42.8831 19.1527 42.5627 19.284 42.2417 19.284C41.9627 19.284 41.6831 19.1848 41.4588 18.984L23.9995 3.34577L6.54023 19.059C6.05898 19.491 5.31836 19.4512 4.88555 18.9691C4.48243 18.5199 4.49024 17.8449 4.88399 17.4051C4.91211 17.3738 4.94258 17.3434 4.97461 17.3145L23.2167 0.8989C23.6628 0.499683 24.337 0.499683 24.7823 0.8989L43.0245 17.2402C43.0565 17.2691 43.087 17.2996 43.1151 17.3309C43.5096 17.7699 43.5174 18.4449 43.1143 18.8949Z" fill="#FFD85C"/>
<path d="M43.1152 17.3309C43.5097 17.77 43.5176 18.445 43.1144 18.895C42.8832 19.1528 42.5629 19.284 42.2418 19.284C41.9629 19.284 41.6832 19.1848 41.459 18.984L23.9997 3.34582L6.54035 19.059C6.05911 19.4911 5.31848 19.4512 4.88567 18.9692C4.48255 18.52 4.49036 17.845 4.88411 17.4051L4.88567 17.4067C5.3177 17.8887 6.05911 17.9286 6.54035 17.4958L23.9997 1.78333L41.459 17.4215C41.6832 17.6223 41.9629 17.7208 42.2418 17.7208C42.5629 17.7208 42.8824 17.5895 43.1136 17.3317C43.1144 17.3309 43.1144 17.3309 43.1152 17.3309Z" fill="#FFB636"/>
<path d="M42.2424 36.4674H38.6073L40.7247 19.1125L41.0679 19.42C41.391 19.71 41.8079 19.8698 42.2418 19.8698C42.7404 19.8698 43.2174 19.657 43.5503 19.2861C43.8639 18.9367 44.0227 18.4862 43.9975 18.0173C43.9721 17.5484 43.7658 17.1174 43.416 16.8034L39.11 12.9465C38.8689 12.7305 38.4984 12.751 38.2826 12.9921C38.0667 13.2331 38.0871 13.6035 38.3282 13.8195L42.6337 17.6759C42.7502 17.7805 42.819 17.9241 42.8274 18.0804C42.8358 18.2367 42.7829 18.3869 42.6783 18.5034C42.5658 18.6288 42.4107 18.6979 42.2419 18.6979C42.0975 18.6979 41.9586 18.6446 41.8504 18.5475L24.391 2.90968C24.1681 2.71007 23.8305 2.7103 23.6081 2.91061L6.14933 18.6227C6.03285 18.7273 5.883 18.7813 5.72636 18.7718C5.57011 18.7634 5.42652 18.6946 5.32191 18.5781C5.21738 18.4616 5.16449 18.3115 5.17293 18.1552C5.18136 17.9989 5.25011 17.8552 5.36715 17.7502L23.6086 1.33531C23.8318 1.13515 24.1683 1.135 24.3918 1.33578L36.415 12.1057C36.6561 12.3215 37.0266 12.3013 37.2424 12.0601C37.4583 11.8191 37.438 11.4486 37.1969 11.2327L25.1743 0.463279C24.5049 -0.137577 23.4952 -0.137577 22.8253 0.463748L4.58371 16.8787C4.23434 17.1923 4.02793 17.6232 4.00262 18.092C3.97731 18.5609 4.13613 19.0116 4.44973 19.3609C4.7634 19.7103 5.19433 19.9166 5.66324 19.9419C5.69566 19.9437 5.72792 19.9445 5.76003 19.9445C6.19378 19.9445 6.60683 19.7866 6.93269 19.4942L7.28354 19.1785L8.78033 31.4471H7.51956C7.23073 31.4471 6.98503 31.6575 6.94058 31.943L6.23652 36.4672H5.75761C4.78848 36.4672 4.00004 37.2567 4.00004 38.2272C4.00004 39.1977 4.78848 39.9871 5.75761 39.9871H42.2424C43.2115 39.9871 44 39.1977 44 38.2272C44 37.2567 43.2115 36.4674 42.2424 36.4674ZM38.6623 26.3398H30.3824C30.0179 24.7215 29.0518 23.3282 27.7324 22.4083H39.142L38.6623 26.3398ZM30.5418 31.4473V27.7782C30.5418 27.6889 30.54 27.6001 30.5364 27.5117H38.5194L38.0392 31.4473H30.5418ZM37.8962 32.6192L37.4268 36.4674H30.5418V32.6192H37.8962ZM9.33775 26.3398L8.85815 22.4083H20.2678C18.9483 23.3283 17.9822 24.7215 17.6177 26.3398H9.33775ZM17.4637 27.5117C17.4601 27.6001 17.4583 27.6889 17.4583 27.7782V31.4473H9.96088L9.48072 27.5117H17.4637ZM18.6301 27.7782C18.6301 24.8173 21.039 22.4083 24 22.4083C26.961 22.4083 29.3699 24.8173 29.3699 27.7782V36.4674H21.1241L20.4201 31.9432C20.3757 31.6578 20.1299 31.4473 19.8411 31.4473H18.6301V27.7782ZM24.001 4.13358L26.1449 6.0538H21.8673L24.001 4.13358ZM20.5651 7.22567H27.4532L31.7602 11.0833H16.2787L20.5651 7.22567ZM8.7151 21.2365L8.34721 18.2213L9.32979 17.337H15.6622C15.9858 17.337 16.2481 17.0748 16.2481 16.7511C16.2481 16.4274 15.9858 16.1652 15.6622 16.1652H10.632L14.9766 12.2552H33.0685L37.4339 16.1652H32.3763C32.0527 16.1652 31.7903 16.4274 31.7903 16.7511C31.7903 17.0748 32.0527 17.337 32.3763 17.337H38.7422L39.6603 18.1593L39.2849 21.2365H8.7151ZM42.2424 38.8154H5.75761C5.43464 38.8154 5.17191 38.5516 5.17191 38.2273C5.17191 37.9031 5.43464 37.6392 5.75761 37.6392H9.4426C9.76619 37.6392 10.0285 37.377 10.0285 37.0533C10.0285 36.7296 9.76619 36.4674 9.4426 36.4674H7.42245L8.02135 32.6192H19.3393L19.9382 36.4674H12.1701C11.8465 36.4674 11.5842 36.7296 11.5842 37.0533C11.5842 37.377 11.8465 37.6392 12.1701 37.6392H42.2425C42.5654 37.6392 42.8282 37.9031 42.8282 38.2273C42.8281 38.5516 42.5654 38.8154 42.2424 38.8154Z" fill="black"/>
<path d="M30.6771 15.0808C30.5741 14.1485 29.8226 13.3971 28.8903 13.2941C28.3143 13.2306 27.7382 13.4144 27.3093 13.7984C26.9601 14.1112 26.7321 14.5342 26.6592 14.9933H21.4123C21.3399 14.5355 21.1117 14.1118 20.7619 13.7985C20.333 13.4143 19.7569 13.2305 19.1809 13.2941C18.2485 13.3971 17.4971 14.1486 17.3942 15.0808C17.3244 15.7122 17.5451 16.3204 17.9824 16.7511C17.5452 17.1819 17.3245 17.7901 17.3942 18.4215C17.4971 19.3539 18.2485 20.1053 19.1808 20.2082C19.7568 20.2714 20.333 20.088 20.7618 19.7039C21.1111 19.3911 21.3392 18.9681 21.4119 18.5089H26.6588C26.7312 18.9668 26.9594 19.3906 27.3092 19.7039C27.6822 20.038 28.1668 20.2206 28.6657 20.2206C28.7403 20.2206 28.8153 20.2164 28.8902 20.2082C29.8225 20.1053 30.5739 19.3538 30.6769 18.4215C30.7466 17.79 30.5259 17.1819 30.0887 16.7512C30.526 16.3204 30.7468 15.7122 30.6771 15.0808ZM29.119 17.4691C29.3982 17.6461 29.5489 17.9617 29.5123 18.2928C29.4697 18.6782 29.1471 19.0009 28.7617 19.0433C28.5132 19.0713 28.2749 18.9954 28.0912 18.8309C27.9099 18.6686 27.806 18.436 27.806 18.1914C27.8064 17.9618 27.7179 17.7462 27.5566 17.5846C27.3972 17.4249 27.1852 17.3369 26.9596 17.3369H21.1117C20.8861 17.3369 20.674 17.4249 20.5147 17.5846C20.3535 17.7461 20.2649 17.9617 20.2653 18.1929C20.2653 18.4359 20.1614 18.6684 19.9801 18.8307C19.7964 18.9952 19.5582 19.0709 19.3096 19.0432C18.9242 19.0007 18.6016 18.6781 18.5591 18.2928C18.5225 17.9616 18.6732 17.646 18.9523 17.469C19.2009 17.3115 19.3492 17.0432 19.3492 16.7511C19.3492 16.459 19.2009 16.1906 18.9524 16.0332C18.6732 15.8562 18.5225 15.5406 18.5591 15.2094C18.6017 14.8241 18.9243 14.5014 19.3096 14.4589C19.5583 14.4314 19.7965 14.5069 19.9802 14.6714C20.1614 14.8337 20.2654 15.0663 20.2654 15.3109C20.2649 15.5405 20.3535 15.756 20.5147 15.9176C20.6741 16.0773 20.8861 16.1653 21.1118 16.1653H26.9596C27.1853 16.1653 27.3974 16.0773 27.5567 15.9176C27.718 15.7561 27.8065 15.5406 27.806 15.3094C27.806 15.0664 27.91 14.8338 28.0913 14.6714C28.2749 14.5071 28.5129 14.4311 28.7618 14.459C29.1535 14.5022 29.4691 14.8179 29.5124 15.2095C29.5489 15.5407 29.3982 15.8563 29.1191 16.0332C28.8705 16.1907 28.7221 16.4591 28.7221 16.7511C28.7221 17.0432 28.8705 17.3116 29.119 17.4691Z" fill="black"/>
</g>
<defs>
<filter id="filter0_d_470_572" x="0" y="0" width="48" height="48" filterUnits="userSpaceOnUse" color-interpolation-filters="sRGB">
<feFlood flood-opacity="0" result="BackgroundImageFix"/>
<feColorMatrix in="SourceAlpha" type="matrix" values="0 0 0 0 0 0 0 0 0 0 0 0 0 0 0 0 0 0 127 0" result="hardAlpha"/>
<feOffset dy="4"/>
<feGaussianBlur stdDeviation="2"/>
<feComposite in2="hardAlpha" operator="out"/>
<feColorMatrix type="matrix" values="0 0 0 0 0 0 0 0 0 0 0 0 0 0 0 0 0 0 0.25 0"/>
<feBlend mode="normal" in2="BackgroundImageFix" result="effect1_dropShadow_470_572"/>
<feBlend mode="normal" in="SourceGraphic" in2="effect1_dropShadow_470_572" result="shape"/>
</filter>
<clipPath id="clip0_470_572">
<rect width="40" height="40" fill="white" transform="translate(4)"/>
</clipPath>
</defs>
</svg>
