<svg width="26" height="23" viewBox="0 0 26 23" fill="none" xmlns="http://www.w3.org/2000/svg">
<path d="M17.4884 12.4508C16.3322 10.6472 14.3632 9.57031 12.2211 9.57031C10.079 9.57031 8.10992 10.6472 6.95399 12.4508L4.16813 16.7967C3.70591 17.5176 3.49264 18.3507 3.55125 19.2051C3.60986 20.0598 3.93506 20.8556 4.49157 21.5071C5.04846 22.1581 5.78433 22.6031 6.61957 22.794C7.45482 22.9849 8.31104 22.9034 9.09552 22.5586L9.14805 22.5353C11.122 21.6849 13.3776 21.6928 15.3464 22.5586C15.8543 22.7818 16.3924 22.8947 16.9354 22.8947C17.2306 22.8947 17.5276 22.8612 17.8218 22.7942C18.657 22.6035 19.3929 22.1585 19.95 21.5073C20.5067 20.8564 20.8321 20.0603 20.8909 19.2055C20.9497 18.3507 20.7364 17.5178 20.2742 16.7965L17.4884 12.4508Z" fill="#FF803B"/>
<path d="M4.91855 12.4448C5.74733 12.1265 6.37695 11.4587 6.69137 10.5642C6.99069 9.71313 6.96619 8.75226 6.62217 7.85842C6.27796 6.96517 5.65187 6.23599 4.85916 5.80495C4.02646 5.35235 3.11163 5.27864 2.28422 5.59756C0.619608 6.23756 -0.144287 8.29456 0.58158 10.184C1.16141 11.6878 2.51376 12.6371 3.88101 12.6371C4.23012 12.6371 4.58022 12.5752 4.91855 12.4448Z" fill="#FF803B"/>
<path d="M10.3241 9.03969C12.4051 9.03969 14.0981 7.11088 14.0981 4.74006C14.0981 2.36865 12.4051 0.439453 10.3241 0.439453C8.24338 0.439453 6.55054 2.36865 6.55054 4.74006C6.55054 7.11088 8.24338 9.03969 10.3241 9.03969Z" fill="#FF803B"/>
<path d="M16.8417 10.0967H16.8419C17.162 10.2029 17.4885 10.2537 17.8137 10.2537C19.3313 10.2537 20.8103 9.14912 21.3747 7.45161C21.6997 6.47447 21.6783 5.44126 21.3145 4.54253C20.9338 3.60165 20.2283 2.91873 19.3278 2.61941C18.4271 2.32009 17.4531 2.44495 16.5849 2.97067C15.7555 3.47286 15.12 4.28771 14.7954 5.26485C14.1103 7.32616 15.0283 9.49372 16.8417 10.0967Z" fill="#FF803B"/>
<path d="M24.7893 9.5937L24.7887 9.59311C23.3537 8.53305 21.2074 8.99251 20.004 10.6179C18.8018 12.244 18.9898 14.4302 20.4227 15.4911C20.9453 15.8782 21.5628 16.0632 22.1948 16.0632C23.2962 16.0632 24.4422 15.5011 25.2082 14.4673C26.4102 12.8411 26.2224 10.6549 24.7893 9.5937Z" fill="#FF803B"/>
</svg>
