<svg width="22" height="20" viewBox="0 0 22 20" fill="none" xmlns="http://www.w3.org/2000/svg">
<path d="M18.2439 0.487805C17.6829 0.170732 17.0244 0 16.3415 0H5.60976C4.92683 0 4.26829 0.195122 3.70732 0.487805C1.65854 0.609756 0 2.31707 0 4.39024V9.7561C0 10.0244 0.219512 10.2439 0.487805 10.2439C0.926829 10.2439 1.31707 10.1707 1.70732 10.0488V10.2439C1.70732 11.9512 2.2439 13.5366 3.19512 14.8049C3.19512 14.9024 3.17073 15.0244 3.17073 15.122C3.17073 17.4146 5.02439 19.2683 7.31707 19.2683C7.78049 19.2683 8.21951 19.1951 8.63415 19.0488C9.2439 19.6341 10.0732 20 10.9756 20C11.878 20 12.7073 19.6341 13.3171 19.0488C13.7317 19.1951 14.1707 19.2683 14.6341 19.2683C16.9268 19.2683 18.7805 17.4146 18.7805 15.122C18.7805 15.0244 18.7805 14.9024 18.7561 14.8049C19.7073 13.5366 20.2439 11.9512 20.2439 10.2439V10.0488C20.6341 10.1707 21.0244 10.2439 21.4634 10.2439C21.7317 10.2439 21.9512 10.0244 21.9512 9.7561V4.39024C21.9512 2.31707 20.2927 0.609756 18.2439 0.487805ZM0.97561 9.21951V4.39024C0.97561 2.95122 2.02439 1.73171 3.41463 1.5122V6.34146C3.41463 7.78049 2.36585 9 0.97561 9.21951ZM7.31707 18.2927C5.56098 18.2927 4.14634 16.878 4.14634 15.122C4.14634 13.3659 5.56098 11.9512 7.31707 11.9512H9.09756C9.26829 12.6341 9.80488 13.1707 10.4878 13.3415V15.122C10.4878 16.878 9.07317 18.2927 7.31707 18.2927ZM10 11.4634C10 10.9268 10.439 10.4878 10.9756 10.4878C11.5122 10.4878 11.9512 10.9268 11.9512 11.4634C11.9512 12 11.5122 12.439 10.9756 12.439C10.439 12.439 10 12 10 11.4634ZM10.9756 19.0244C10.4634 19.0244 9.97561 18.8537 9.58537 18.5854C10.1707 18.1951 10.6341 17.6829 10.9756 17.0732C11.2927 17.6829 11.7805 18.2195 12.3659 18.5854C11.9756 18.8537 11.4878 19.0244 10.9756 19.0244ZM14.6341 18.2927C12.878 18.2927 11.4634 16.878 11.4634 15.122V13.3415C12.1463 13.1707 12.6829 12.6341 12.8537 11.9512H14.6341C16.3902 11.9512 17.8049 13.3659 17.8049 15.122C17.8049 16.878 16.3902 18.2927 14.6341 18.2927ZM19.2683 10.2439C19.2683 11.4146 18.9756 12.5122 18.439 13.4878C17.8049 12.0244 16.3415 10.9756 14.6341 10.9756H12.8537C12.6341 10.1463 11.878 9.5122 10.9756 9.5122C10.0732 9.5122 9.31707 10.1463 9.09756 10.9756H7.31707C5.60976 10.9756 4.14634 12.0244 3.5122 13.4878C2.97561 12.5122 2.68293 11.4146 2.68293 10.2439V9.56098C3.70732 8.85366 4.39024 7.68293 4.39024 6.34146V1.2439C4.7561 1.07317 5.17073 0.97561 5.60976 0.97561H16.3415C16.7805 0.97561 17.1951 1.07317 17.561 1.2439V6.34146C17.561 7.68293 18.2439 8.85366 19.2683 9.56098V10.2439ZM20.9756 9.21951C19.5854 9 18.5366 7.78049 18.5366 6.34146V1.5122C19.9268 1.7561 20.9756 2.95122 20.9756 4.39024V9.21951ZM7.90244 7.21951C8 7.31707 8.04878 7.43902 8.04878 7.56098C8.04878 7.68293 8 7.80488 7.90244 7.90244C7.80488 8 7.68293 8.04878 7.56098 8.04878C7.53659 8.04878 7.48781 8.04878 7.46341 8.04878C7.43902 8.04878 7.41464 8.02439 7.36585 8.02439C7.34146 8.02439 7.31707 8 7.29268 7.97561C7.26829 7.95122 7.2439 7.95122 7.21951 7.92683C7.12195 7.80488 7.07317 7.68293 7.07317 7.56098C7.07317 7.43902 7.12195 7.31707 7.21951 7.21951C7.2439 7.19512 7.26829 7.17073 7.29268 7.17073C7.31707 7.17073 7.34146 7.14634 7.36585 7.12195C7.39024 7.12195 7.41463 7.09756 7.46341 7.09756C7.53659 7.09756 7.58537 7.09756 7.65854 7.09756C7.68293 7.09756 7.70732 7.12195 7.7561 7.12195C7.78049 7.14634 7.80488 7.14634 7.82927 7.17073C7.85366 7.19512 7.87805 7.19512 7.90244 7.21951ZM14.878 7.46341C14.878 7.4878 14.878 7.53659 14.878 7.56098C14.878 7.58537 14.878 7.63415 14.878 7.65854C14.878 7.68293 14.8537 7.70732 14.8537 7.7561C14.8537 7.78049 14.8293 7.80488 14.8049 7.82927C14.7805 7.85366 14.7805 7.87805 14.7561 7.90244C14.6341 8 14.5122 8.04878 14.3902 8.04878C14.2683 8.04878 14.1463 8 14.0488 7.90244C13.9512 7.80488 13.9024 7.68293 13.9024 7.56098C13.9024 7.53659 13.9024 7.4878 13.9024 7.46341C13.9024 7.43902 13.9268 7.41463 13.9268 7.36585C13.9268 7.34146 13.9512 7.31707 13.9756 7.29268C14 7.26829 14 7.2439 14.0244 7.21951C14.1951 7.04878 14.5366 7.04878 14.7073 7.21951C14.7317 7.2439 14.7561 7.26829 14.7561 7.29268C14.7805 7.31707 14.7805 7.34146 14.8049 7.36585C14.8537 7.41463 14.8537 7.43902 14.878 7.46341Z" fill="#F8721F"/>
</svg>
